<svg width="61" height="61" viewBox="0 0 61 61" fill="none" xmlns="http://www.w3.org/2000/svg">
<path d="M0.460724 30.4961C0.460724 13.8952 13.9184 0.4375 30.5193 0.4375V0.4375C47.1202 0.4375 60.5779 13.8952 60.5779 30.4961V30.4961C60.5779 47.097 47.1202 60.5547 30.5193 60.5547V60.5547C13.9184 60.5547 0.460724 47.097 0.460724 30.4961V30.4961Z" fill="#000006"/>
<path d="M9.40024 30.4961C9.40024 18.8323 18.8556 9.37695 30.5193 9.37695V9.37695C42.1831 9.37695 51.6384 18.8323 51.6384 30.4961V30.4961C51.6384 42.1598 42.1831 51.6152 30.5193 51.6152V51.6152C18.8556 51.6152 9.40024 42.1598 9.40024 30.4961V30.4961Z" fill="white"/>
<path d="M36.7502 25.4548L24.2885 35.5372M36.7502 25.4548L26.6054 24.3841M36.7502 25.4548L35.6795 35.5997" stroke="black" stroke-width="2.26693" stroke-linecap="round" stroke-linejoin="round"/>
</svg>
